<mxfile host="app.diagrams.net" agent="Mozilla/5.0 (X11; Linux x86_64; rv:134.0) Gecko/20100101 Firefox/134.0" version="26.1.2">
  <diagram name="Page-1" id="b7R34Ys5LUSmUsJKBkCt">
    <mxGraphModel dx="1666" dy="874" grid="1" gridSize="10" guides="1" tooltips="1" connect="1" arrows="1" fold="1" page="1" pageScale="1" pageWidth="850" pageHeight="1100" math="0" shadow="0">
      <root>
        <mxCell id="0" />
        <mxCell id="1" parent="0" />
        <mxCell id="eFN8brW1kehvK0RhN0O0-2" value="Users" style="rounded=0;whiteSpace=wrap;html=1;" vertex="1" parent="1">
          <mxGeometry x="306" y="430" width="120" height="60" as="geometry" />
        </mxCell>
        <mxCell id="eFN8brW1kehvK0RhN0O0-4" style="rounded=0;orthogonalLoop=1;jettySize=auto;html=1;endArrow=none;startFill=0;" edge="1" parent="1" source="eFN8brW1kehvK0RhN0O0-3" target="eFN8brW1kehvK0RhN0O0-2">
          <mxGeometry relative="1" as="geometry" />
        </mxCell>
        <mxCell id="eFN8brW1kehvK0RhN0O0-3" value="&lt;div&gt;username&lt;/div&gt;" style="ellipse;whiteSpace=wrap;html=1;" vertex="1" parent="1">
          <mxGeometry x="176" y="385" width="82" height="50" as="geometry" />
        </mxCell>
        <mxCell id="eFN8brW1kehvK0RhN0O0-7" style="edgeStyle=none;shape=connector;rounded=0;orthogonalLoop=1;jettySize=auto;html=1;strokeColor=default;align=center;verticalAlign=middle;fontFamily=Helvetica;fontSize=11;fontColor=default;labelBackgroundColor=default;startFill=0;endArrow=none;" edge="1" parent="1" source="eFN8brW1kehvK0RhN0O0-6" target="eFN8brW1kehvK0RhN0O0-2">
          <mxGeometry relative="1" as="geometry" />
        </mxCell>
        <mxCell id="eFN8brW1kehvK0RhN0O0-6" value="&lt;u&gt;acc_num&lt;/u&gt;" style="ellipse;whiteSpace=wrap;html=1;fontFamily=Helvetica;fontSize=11;fontColor=default;labelBackgroundColor=default;" vertex="1" parent="1">
          <mxGeometry x="156" y="435" width="82" height="50" as="geometry" />
        </mxCell>
        <mxCell id="eFN8brW1kehvK0RhN0O0-9" style="edgeStyle=none;shape=connector;rounded=0;orthogonalLoop=1;jettySize=auto;html=1;strokeColor=default;align=center;verticalAlign=middle;fontFamily=Helvetica;fontSize=11;fontColor=default;labelBackgroundColor=default;startFill=0;endArrow=none;" edge="1" parent="1" source="eFN8brW1kehvK0RhN0O0-8" target="eFN8brW1kehvK0RhN0O0-2">
          <mxGeometry relative="1" as="geometry" />
        </mxCell>
        <mxCell id="eFN8brW1kehvK0RhN0O0-8" value="first name" style="ellipse;whiteSpace=wrap;html=1;fontFamily=Helvetica;fontSize=11;fontColor=default;labelBackgroundColor=default;" vertex="1" parent="1">
          <mxGeometry x="286" y="310" width="82" height="50" as="geometry" />
        </mxCell>
        <mxCell id="eFN8brW1kehvK0RhN0O0-11" style="edgeStyle=none;shape=connector;rounded=0;orthogonalLoop=1;jettySize=auto;html=1;strokeColor=default;align=center;verticalAlign=middle;fontFamily=Helvetica;fontSize=11;fontColor=default;labelBackgroundColor=default;startFill=0;endArrow=none;" edge="1" parent="1" source="eFN8brW1kehvK0RhN0O0-10" target="eFN8brW1kehvK0RhN0O0-2">
          <mxGeometry relative="1" as="geometry" />
        </mxCell>
        <mxCell id="eFN8brW1kehvK0RhN0O0-10" value="last name" style="ellipse;whiteSpace=wrap;html=1;fontFamily=Helvetica;fontSize=11;fontColor=default;labelBackgroundColor=default;" vertex="1" parent="1">
          <mxGeometry x="368" y="310" width="82" height="50" as="geometry" />
        </mxCell>
        <mxCell id="eFN8brW1kehvK0RhN0O0-13" style="edgeStyle=none;shape=connector;rounded=0;orthogonalLoop=1;jettySize=auto;html=1;strokeColor=default;align=center;verticalAlign=middle;fontFamily=Helvetica;fontSize=11;fontColor=default;labelBackgroundColor=default;startFill=0;endArrow=none;" edge="1" parent="1" source="eFN8brW1kehvK0RhN0O0-12" target="eFN8brW1kehvK0RhN0O0-2">
          <mxGeometry relative="1" as="geometry" />
        </mxCell>
        <mxCell id="eFN8brW1kehvK0RhN0O0-12" value="SSN" style="ellipse;whiteSpace=wrap;html=1;fontFamily=Helvetica;fontSize=11;fontColor=default;labelBackgroundColor=default;" vertex="1" parent="1">
          <mxGeometry x="436" y="340" width="82" height="50" as="geometry" />
        </mxCell>
        <mxCell id="eFN8brW1kehvK0RhN0O0-17" style="edgeStyle=none;shape=connector;rounded=0;orthogonalLoop=1;jettySize=auto;html=1;strokeColor=default;align=center;verticalAlign=middle;fontFamily=Helvetica;fontSize=11;fontColor=default;labelBackgroundColor=default;startFill=0;endArrow=none;" edge="1" parent="1" source="eFN8brW1kehvK0RhN0O0-16" target="eFN8brW1kehvK0RhN0O0-2">
          <mxGeometry relative="1" as="geometry" />
        </mxCell>
        <mxCell id="eFN8brW1kehvK0RhN0O0-16" value="phone number" style="ellipse;whiteSpace=wrap;html=1;fontFamily=Helvetica;fontSize=11;fontColor=default;labelBackgroundColor=default;" vertex="1" parent="1">
          <mxGeometry x="486" y="435" width="82" height="50" as="geometry" />
        </mxCell>
        <mxCell id="eFN8brW1kehvK0RhN0O0-19" style="edgeStyle=none;shape=connector;rounded=0;orthogonalLoop=1;jettySize=auto;html=1;strokeColor=default;align=center;verticalAlign=middle;fontFamily=Helvetica;fontSize=11;fontColor=default;labelBackgroundColor=default;startFill=0;endArrow=none;" edge="1" parent="1" source="eFN8brW1kehvK0RhN0O0-18" target="eFN8brW1kehvK0RhN0O0-2">
          <mxGeometry relative="1" as="geometry" />
        </mxCell>
        <mxCell id="eFN8brW1kehvK0RhN0O0-18" value="password" style="ellipse;whiteSpace=wrap;html=1;fontFamily=Helvetica;fontSize=11;fontColor=default;labelBackgroundColor=default;" vertex="1" parent="1">
          <mxGeometry x="216" y="340" width="82" height="50" as="geometry" />
        </mxCell>
        <mxCell id="eFN8brW1kehvK0RhN0O0-22" value="Admin" style="rounded=0;whiteSpace=wrap;html=1;fontFamily=Helvetica;fontSize=11;fontColor=default;labelBackgroundColor=default;" vertex="1" parent="1">
          <mxGeometry x="120" y="630" width="120" height="60" as="geometry" />
        </mxCell>
        <mxCell id="eFN8brW1kehvK0RhN0O0-25" style="edgeStyle=none;shape=connector;rounded=0;orthogonalLoop=1;jettySize=auto;html=1;strokeColor=default;align=center;verticalAlign=middle;fontFamily=Helvetica;fontSize=11;fontColor=default;labelBackgroundColor=default;startFill=0;endArrow=classic;endFill=1;" edge="1" parent="1" source="eFN8brW1kehvK0RhN0O0-23" target="eFN8brW1kehvK0RhN0O0-22">
          <mxGeometry relative="1" as="geometry" />
        </mxCell>
        <mxCell id="eFN8brW1kehvK0RhN0O0-27" style="edgeStyle=none;shape=connector;rounded=0;orthogonalLoop=1;jettySize=auto;html=1;strokeColor=default;align=center;verticalAlign=middle;fontFamily=Helvetica;fontSize=11;fontColor=default;labelBackgroundColor=default;startFill=0;endArrow=none;" edge="1" parent="1" source="eFN8brW1kehvK0RhN0O0-23" target="eFN8brW1kehvK0RhN0O0-26">
          <mxGeometry relative="1" as="geometry" />
        </mxCell>
        <mxCell id="eFN8brW1kehvK0RhN0O0-23" value="approves" style="rhombus;whiteSpace=wrap;html=1;fontFamily=Helvetica;fontSize=11;fontColor=default;labelBackgroundColor=default;" vertex="1" parent="1">
          <mxGeometry x="364" y="650" width="72" height="40" as="geometry" />
        </mxCell>
        <mxCell id="eFN8brW1kehvK0RhN0O0-26" value="&lt;div&gt;User Applications&lt;/div&gt;" style="rounded=0;whiteSpace=wrap;html=1;fontFamily=Helvetica;fontSize=11;fontColor=default;labelBackgroundColor=default;" vertex="1" parent="1">
          <mxGeometry x="540" y="650" width="120" height="60" as="geometry" />
        </mxCell>
        <mxCell id="eFN8brW1kehvK0RhN0O0-29" style="edgeStyle=none;shape=connector;rounded=0;orthogonalLoop=1;jettySize=auto;html=1;strokeColor=default;align=center;verticalAlign=middle;fontFamily=Helvetica;fontSize=11;fontColor=default;labelBackgroundColor=default;startFill=0;endArrow=classic;endFill=1;" edge="1" parent="1" source="eFN8brW1kehvK0RhN0O0-28" target="eFN8brW1kehvK0RhN0O0-26">
          <mxGeometry relative="1" as="geometry" />
        </mxCell>
        <mxCell id="eFN8brW1kehvK0RhN0O0-30" style="edgeStyle=none;shape=connector;rounded=0;orthogonalLoop=1;jettySize=auto;html=1;strokeColor=default;align=center;verticalAlign=middle;fontFamily=Helvetica;fontSize=11;fontColor=default;labelBackgroundColor=default;startFill=0;endArrow=classic;endFill=1;" edge="1" parent="1" source="eFN8brW1kehvK0RhN0O0-28" target="eFN8brW1kehvK0RhN0O0-2">
          <mxGeometry relative="1" as="geometry" />
        </mxCell>
        <mxCell id="eFN8brW1kehvK0RhN0O0-28" value="becomes" style="rhombus;whiteSpace=wrap;html=1;fontFamily=Helvetica;fontSize=11;fontColor=default;labelBackgroundColor=default;" vertex="1" parent="1">
          <mxGeometry x="464" y="560" width="76" height="40" as="geometry" />
        </mxCell>
        <mxCell id="eFN8brW1kehvK0RhN0O0-31" style="rounded=0;orthogonalLoop=1;jettySize=auto;html=1;endArrow=none;startFill=0;" edge="1" parent="1" source="eFN8brW1kehvK0RhN0O0-32" target="eFN8brW1kehvK0RhN0O0-26">
          <mxGeometry relative="1" as="geometry">
            <mxPoint x="345" y="860" as="targetPoint" />
          </mxGeometry>
        </mxCell>
        <mxCell id="eFN8brW1kehvK0RhN0O0-32" value="&lt;div&gt;username&lt;/div&gt;" style="ellipse;whiteSpace=wrap;html=1;" vertex="1" parent="1">
          <mxGeometry x="557" y="540" width="82" height="50" as="geometry" />
        </mxCell>
        <mxCell id="eFN8brW1kehvK0RhN0O0-33" style="edgeStyle=none;shape=connector;rounded=0;orthogonalLoop=1;jettySize=auto;html=1;strokeColor=default;align=center;verticalAlign=middle;fontFamily=Helvetica;fontSize=11;fontColor=default;labelBackgroundColor=default;startFill=0;endArrow=none;" edge="1" parent="1" source="eFN8brW1kehvK0RhN0O0-34" target="eFN8brW1kehvK0RhN0O0-26">
          <mxGeometry relative="1" as="geometry">
            <mxPoint x="396" y="850" as="targetPoint" />
          </mxGeometry>
        </mxCell>
        <mxCell id="eFN8brW1kehvK0RhN0O0-34" value="first name" style="ellipse;whiteSpace=wrap;html=1;fontFamily=Helvetica;fontSize=11;fontColor=default;labelBackgroundColor=default;" vertex="1" parent="1">
          <mxGeometry x="700" y="630" width="82" height="50" as="geometry" />
        </mxCell>
        <mxCell id="eFN8brW1kehvK0RhN0O0-35" style="edgeStyle=none;shape=connector;rounded=0;orthogonalLoop=1;jettySize=auto;html=1;strokeColor=default;align=center;verticalAlign=middle;fontFamily=Helvetica;fontSize=11;fontColor=default;labelBackgroundColor=default;startFill=0;endArrow=none;" edge="1" parent="1" source="eFN8brW1kehvK0RhN0O0-36" target="eFN8brW1kehvK0RhN0O0-26">
          <mxGeometry relative="1" as="geometry">
            <mxPoint x="415" y="850" as="targetPoint" />
          </mxGeometry>
        </mxCell>
        <mxCell id="eFN8brW1kehvK0RhN0O0-36" value="last name" style="ellipse;whiteSpace=wrap;html=1;fontFamily=Helvetica;fontSize=11;fontColor=default;labelBackgroundColor=default;" vertex="1" parent="1">
          <mxGeometry x="700" y="690" width="82" height="50" as="geometry" />
        </mxCell>
        <mxCell id="eFN8brW1kehvK0RhN0O0-37" style="edgeStyle=none;shape=connector;rounded=0;orthogonalLoop=1;jettySize=auto;html=1;strokeColor=default;align=center;verticalAlign=middle;fontFamily=Helvetica;fontSize=11;fontColor=default;labelBackgroundColor=default;startFill=0;endArrow=none;" edge="1" parent="1" source="eFN8brW1kehvK0RhN0O0-38" target="eFN8brW1kehvK0RhN0O0-26">
          <mxGeometry relative="1" as="geometry">
            <mxPoint x="440" y="850" as="targetPoint" />
          </mxGeometry>
        </mxCell>
        <mxCell id="eFN8brW1kehvK0RhN0O0-38" value="SSN" style="ellipse;whiteSpace=wrap;html=1;fontFamily=Helvetica;fontSize=11;fontColor=default;labelBackgroundColor=default;" vertex="1" parent="1">
          <mxGeometry x="658" y="730" width="82" height="50" as="geometry" />
        </mxCell>
        <mxCell id="eFN8brW1kehvK0RhN0O0-41" style="edgeStyle=none;shape=connector;rounded=0;orthogonalLoop=1;jettySize=auto;html=1;strokeColor=default;align=center;verticalAlign=middle;fontFamily=Helvetica;fontSize=11;fontColor=default;labelBackgroundColor=default;startFill=0;endArrow=none;" edge="1" parent="1" source="eFN8brW1kehvK0RhN0O0-42" target="eFN8brW1kehvK0RhN0O0-26">
          <mxGeometry relative="1" as="geometry">
            <mxPoint x="465" y="880" as="targetPoint" />
          </mxGeometry>
        </mxCell>
        <mxCell id="eFN8brW1kehvK0RhN0O0-42" value="phone number" style="ellipse;whiteSpace=wrap;html=1;fontFamily=Helvetica;fontSize=11;fontColor=default;labelBackgroundColor=default;" vertex="1" parent="1">
          <mxGeometry x="568" y="750" width="82" height="50" as="geometry" />
        </mxCell>
        <mxCell id="eFN8brW1kehvK0RhN0O0-43" style="edgeStyle=none;shape=connector;rounded=0;orthogonalLoop=1;jettySize=auto;html=1;strokeColor=default;align=center;verticalAlign=middle;fontFamily=Helvetica;fontSize=11;fontColor=default;labelBackgroundColor=default;startFill=0;endArrow=none;" edge="1" parent="1" source="eFN8brW1kehvK0RhN0O0-44" target="eFN8brW1kehvK0RhN0O0-26">
          <mxGeometry relative="1" as="geometry">
            <mxPoint x="371" y="850" as="targetPoint" />
          </mxGeometry>
        </mxCell>
        <mxCell id="eFN8brW1kehvK0RhN0O0-44" value="password" style="ellipse;whiteSpace=wrap;html=1;fontFamily=Helvetica;fontSize=11;fontColor=default;labelBackgroundColor=default;" vertex="1" parent="1">
          <mxGeometry x="639" y="550" width="82" height="50" as="geometry" />
        </mxCell>
        <mxCell id="eFN8brW1kehvK0RhN0O0-48" style="edgeStyle=none;shape=connector;rounded=0;orthogonalLoop=1;jettySize=auto;html=1;strokeColor=default;align=center;verticalAlign=middle;fontFamily=Helvetica;fontSize=11;fontColor=default;labelBackgroundColor=default;startFill=0;endArrow=none;" edge="1" parent="1" source="eFN8brW1kehvK0RhN0O0-46" target="eFN8brW1kehvK0RhN0O0-22">
          <mxGeometry relative="1" as="geometry" />
        </mxCell>
        <mxCell id="eFN8brW1kehvK0RhN0O0-46" value="&lt;div&gt;username&lt;/div&gt;" style="ellipse;whiteSpace=wrap;html=1;" vertex="1" parent="1">
          <mxGeometry x="-2" y="595" width="82" height="50" as="geometry" />
        </mxCell>
        <mxCell id="eFN8brW1kehvK0RhN0O0-49" style="edgeStyle=none;shape=connector;rounded=0;orthogonalLoop=1;jettySize=auto;html=1;strokeColor=default;align=center;verticalAlign=middle;fontFamily=Helvetica;fontSize=11;fontColor=default;labelBackgroundColor=default;startFill=0;endArrow=none;" edge="1" parent="1" source="eFN8brW1kehvK0RhN0O0-47" target="eFN8brW1kehvK0RhN0O0-22">
          <mxGeometry relative="1" as="geometry" />
        </mxCell>
        <mxCell id="eFN8brW1kehvK0RhN0O0-47" value="password" style="ellipse;whiteSpace=wrap;html=1;fontFamily=Helvetica;fontSize=11;fontColor=default;labelBackgroundColor=default;" vertex="1" parent="1">
          <mxGeometry x="38" y="550" width="82" height="50" as="geometry" />
        </mxCell>
        <mxCell id="eFN8brW1kehvK0RhN0O0-51" style="edgeStyle=none;shape=connector;rounded=0;orthogonalLoop=1;jettySize=auto;html=1;strokeColor=default;align=center;verticalAlign=middle;fontFamily=Helvetica;fontSize=11;fontColor=default;labelBackgroundColor=default;startFill=0;endArrow=none;" edge="1" parent="1" source="eFN8brW1kehvK0RhN0O0-50" target="eFN8brW1kehvK0RhN0O0-2">
          <mxGeometry relative="1" as="geometry" />
        </mxCell>
        <mxCell id="eFN8brW1kehvK0RhN0O0-50" value="balance" style="ellipse;whiteSpace=wrap;html=1;fontFamily=Helvetica;fontSize=11;fontColor=default;labelBackgroundColor=default;" vertex="1" parent="1">
          <mxGeometry x="486" y="485" width="82" height="50" as="geometry" />
        </mxCell>
        <mxCell id="eFN8brW1kehvK0RhN0O0-53" value="&lt;div&gt;Address&lt;/div&gt;" style="rounded=0;whiteSpace=wrap;html=1;fontFamily=Helvetica;fontSize=11;fontColor=default;labelBackgroundColor=default;" vertex="1" parent="1">
          <mxGeometry x="620" y="360" width="120" height="60" as="geometry" />
        </mxCell>
        <mxCell id="eFN8brW1kehvK0RhN0O0-63" style="edgeStyle=none;shape=connector;rounded=0;orthogonalLoop=1;jettySize=auto;html=1;strokeColor=default;align=center;verticalAlign=middle;fontFamily=Helvetica;fontSize=11;fontColor=default;labelBackgroundColor=default;startFill=0;endArrow=none;" edge="1" parent="1" source="eFN8brW1kehvK0RhN0O0-54" target="eFN8brW1kehvK0RhN0O0-53">
          <mxGeometry relative="1" as="geometry" />
        </mxCell>
        <mxCell id="eFN8brW1kehvK0RhN0O0-54" value="street address" style="ellipse;whiteSpace=wrap;html=1;fontFamily=Helvetica;fontSize=11;fontColor=default;labelBackgroundColor=default;" vertex="1" parent="1">
          <mxGeometry x="540" y="270" width="82" height="50" as="geometry" />
        </mxCell>
        <mxCell id="eFN8brW1kehvK0RhN0O0-62" style="edgeStyle=none;shape=connector;rounded=0;orthogonalLoop=1;jettySize=auto;html=1;strokeColor=default;align=center;verticalAlign=middle;fontFamily=Helvetica;fontSize=11;fontColor=default;labelBackgroundColor=default;startFill=0;endArrow=none;" edge="1" parent="1" source="eFN8brW1kehvK0RhN0O0-55" target="eFN8brW1kehvK0RhN0O0-53">
          <mxGeometry relative="1" as="geometry" />
        </mxCell>
        <mxCell id="eFN8brW1kehvK0RhN0O0-55" value="city" style="ellipse;whiteSpace=wrap;html=1;fontFamily=Helvetica;fontSize=11;fontColor=default;labelBackgroundColor=default;" vertex="1" parent="1">
          <mxGeometry x="622" y="270" width="82" height="50" as="geometry" />
        </mxCell>
        <mxCell id="eFN8brW1kehvK0RhN0O0-59" style="edgeStyle=none;shape=connector;rounded=0;orthogonalLoop=1;jettySize=auto;html=1;strokeColor=default;align=center;verticalAlign=middle;fontFamily=Helvetica;fontSize=11;fontColor=default;labelBackgroundColor=default;startFill=0;endArrow=none;" edge="1" parent="1" source="eFN8brW1kehvK0RhN0O0-56" target="eFN8brW1kehvK0RhN0O0-53">
          <mxGeometry relative="1" as="geometry" />
        </mxCell>
        <mxCell id="eFN8brW1kehvK0RhN0O0-56" value="country" style="ellipse;whiteSpace=wrap;html=1;fontFamily=Helvetica;fontSize=11;fontColor=default;labelBackgroundColor=default;" vertex="1" parent="1">
          <mxGeometry x="768" y="365" width="82" height="50" as="geometry" />
        </mxCell>
        <mxCell id="eFN8brW1kehvK0RhN0O0-61" style="edgeStyle=none;shape=connector;rounded=0;orthogonalLoop=1;jettySize=auto;html=1;strokeColor=default;align=center;verticalAlign=middle;fontFamily=Helvetica;fontSize=11;fontColor=default;labelBackgroundColor=default;startFill=0;endArrow=none;" edge="1" parent="1" source="eFN8brW1kehvK0RhN0O0-57" target="eFN8brW1kehvK0RhN0O0-53">
          <mxGeometry relative="1" as="geometry" />
        </mxCell>
        <mxCell id="eFN8brW1kehvK0RhN0O0-57" value="state" style="ellipse;whiteSpace=wrap;html=1;fontFamily=Helvetica;fontSize=11;fontColor=default;labelBackgroundColor=default;" vertex="1" parent="1">
          <mxGeometry x="704" y="270" width="82" height="50" as="geometry" />
        </mxCell>
        <mxCell id="eFN8brW1kehvK0RhN0O0-60" style="edgeStyle=none;shape=connector;rounded=0;orthogonalLoop=1;jettySize=auto;html=1;strokeColor=default;align=center;verticalAlign=middle;fontFamily=Helvetica;fontSize=11;fontColor=default;labelBackgroundColor=default;startFill=0;endArrow=none;" edge="1" parent="1" source="eFN8brW1kehvK0RhN0O0-58" target="eFN8brW1kehvK0RhN0O0-53">
          <mxGeometry relative="1" as="geometry" />
        </mxCell>
        <mxCell id="eFN8brW1kehvK0RhN0O0-58" value="zip code" style="ellipse;whiteSpace=wrap;html=1;fontFamily=Helvetica;fontSize=11;fontColor=default;labelBackgroundColor=default;" vertex="1" parent="1">
          <mxGeometry x="750" y="310" width="82" height="50" as="geometry" />
        </mxCell>
        <mxCell id="eFN8brW1kehvK0RhN0O0-65" style="edgeStyle=none;shape=connector;rounded=0;orthogonalLoop=1;jettySize=auto;html=1;strokeColor=default;align=center;verticalAlign=middle;fontFamily=Helvetica;fontSize=11;fontColor=default;labelBackgroundColor=default;startFill=0;endArrow=classic;endFill=1;" edge="1" parent="1" source="eFN8brW1kehvK0RhN0O0-64" target="eFN8brW1kehvK0RhN0O0-2">
          <mxGeometry relative="1" as="geometry" />
        </mxCell>
        <mxCell id="eFN8brW1kehvK0RhN0O0-66" style="edgeStyle=none;shape=connector;rounded=0;orthogonalLoop=1;jettySize=auto;html=1;strokeColor=default;align=center;verticalAlign=middle;fontFamily=Helvetica;fontSize=11;fontColor=default;labelBackgroundColor=default;startFill=0;endArrow=classic;endFill=1;" edge="1" parent="1" source="eFN8brW1kehvK0RhN0O0-64" target="eFN8brW1kehvK0RhN0O0-53">
          <mxGeometry relative="1" as="geometry" />
        </mxCell>
        <mxCell id="eFN8brW1kehvK0RhN0O0-64" value="has" style="rhombus;whiteSpace=wrap;html=1;fontFamily=Helvetica;fontSize=11;fontColor=default;labelBackgroundColor=default;" vertex="1" parent="1">
          <mxGeometry x="496" y="390" width="61" height="40" as="geometry" />
        </mxCell>
        <mxCell id="eFN8brW1kehvK0RhN0O0-68" style="edgeStyle=none;shape=connector;rounded=0;orthogonalLoop=1;jettySize=auto;html=1;strokeColor=default;align=center;verticalAlign=middle;fontFamily=Helvetica;fontSize=11;fontColor=default;labelBackgroundColor=default;startFill=0;endArrow=classic;endFill=1;" edge="1" parent="1" source="eFN8brW1kehvK0RhN0O0-67" target="eFN8brW1kehvK0RhN0O0-53">
          <mxGeometry relative="1" as="geometry" />
        </mxCell>
        <mxCell id="eFN8brW1kehvK0RhN0O0-67" value="has" style="rhombus;whiteSpace=wrap;html=1;fontFamily=Helvetica;fontSize=11;fontColor=default;labelBackgroundColor=default;" vertex="1" parent="1">
          <mxGeometry x="740" y="560" width="61" height="40" as="geometry" />
        </mxCell>
        <mxCell id="eFN8brW1kehvK0RhN0O0-69" style="edgeStyle=none;shape=connector;rounded=0;orthogonalLoop=1;jettySize=auto;html=1;strokeColor=default;align=center;verticalAlign=middle;fontFamily=Helvetica;fontSize=11;fontColor=default;labelBackgroundColor=default;startFill=0;endArrow=classic;endFill=1;" edge="1" parent="1" source="eFN8brW1kehvK0RhN0O0-67" target="eFN8brW1kehvK0RhN0O0-26">
          <mxGeometry relative="1" as="geometry" />
        </mxCell>
      </root>
    </mxGraphModel>
  </diagram>
</mxfile>
